<svg id="eRSq6gmwQFW1" xmlns="http://www.w3.org/2000/svg" xmlns:xlink="http://www.w3.org/1999/xlink" viewBox="0 0 253 253" shape-rendering="geometricPrecision" text-rendering="geometricPrecision"><g transform="matrix(.1 0 0-.100396 0 253)"><path d="M0,1260L0,0h1265h1265v1260v1260h-1265-1265v-1260Zm773,180c4,0,7,20,7,45v45h50h50v-103-103l60-59c32-32,57-62,54-67-3-4-25-8-50-8h-44v-165-165l-317,2-318,3-3,163-2,162h-45c-25,0-45,4-45,9c0,4,93,104,207,221l208,213l91-97c50-53,94-96,97-96Zm511,94c13-12,16-38,16-120c0-128-7-144-60-144h-40v140v140h34c19,0,42-7,50-16Zm126,1c0-8-9-15-20-15-17,0-20-7-20-45c0-33,4-45,15-45c8,0,15-7,15-15s-7-15-15-15c-11,0-15-12-15-45c0-38,3-45,20-45c13,0,20-7,20-20c0-17-7-20-40-20h-40v140v140h40c29,0,40-4,40-15Zm98,3c17-17,15-68-2-68-8,0-16,10-18,23-2,12-7,21-13,20-6-2-10-45-10-103s4-101,10-102c6-2,11,9,13,25c5,40,32,35,32-6c0-38-15-57-45-57-39,0-45,18-45,140s6,140,45,140c12,0,26-5,33-12Zm123-5c10-11,14-47,14-123c0-119-8-140-56-140-41,0-49,24-49,141c0,81,3,106,17,121c20,22,56,23,74,1Zm135-8c11-17,14-36,10-62-7-46-7-42,0-125c5-57,4-68-9-68-12,0-17,16-22,65-5,45-12,65-21,65-11,0-14-16-14-65c0-58-2-65-20-65-19,0-20,7-20,133c0,74,3,137,7,140c3,4,21,7,39,7c25,0,38-7,50-25Zm152-38c2-42,7-57,17-57c12,0,15,14,15,60c0,47,3,60,15,60c13,0,15-22,15-140s-2-140-15-140c-12,0-15,14-15,65s-3,65-15,65-15-14-15-65c0-58-2-65-20-65-19,0-20,7-20,141c0,128,2,140,18,137c13-2,18-15,20-61Zm189,33c8-16,13-67,13-137c0-106-1-113-20-113-17,0-20,7-20,40c0,29-4,40-15,40s-15-11-15-40c0-34-3-40-21-40-20,0-21,4-17,123c2,88,7,129,17,141c20,24,63,17,78-14Zm75-92c2-84,7-123,15-125c9-3,13,27,15,119c3,108,5,123,21,126c15,3,17-7,17-112c0-138-8-166-49-166-45,0-53,20-59,139-5,117-1,141,22,141c13,0,16-21,18-122Zm176,110c17-17,15-68-2-68-8,0-16,10-18,22-6,41-28,32-28-11c0-32,5-44,24-56c42-28,55-103,23-142-5-7-22-13-38-13-32,0-49,23-49,65c0,34,32,31,40-3s25-32,28,3c2,24-5,39-33,67-37,39-47,88-25,129c12,22,59,26,78,7ZM1343,1038l14-33l7,33c4,18,14,32,22,32s20-15,26-32l12-33l8,33c5,18,15,32,23,32c18,0,19-12,1-70-9-33-18-45-32-45-11,0-20,8-22,20-7,35-20,38-27,6-10-47-39-41-54,12-7,23-15,50-17,60-10,32,25,18,39-15Zm267,17c0-10-10-15-30-15-16,0-30-4-30-10c0-5,9-10,20-10c27,0,25-28-2-33-17-3-14-5,10-6c21-1,32-6,32-16c0-11-12-15-50-15h-50v60v60h50c38,0,50-4,50-15Zm207,3c6-7,10-29,10-48c0-47-12-60-58-60h-39v60v60h39c21,0,43-6,48-12Zm83-28c0-28,5-43,16-47c21-8,34,13,34,55c0,22,5,32,15,32c11,0,15-11,15-38c0-67-40-99-91-72-25,14-29,110-4,110c11,0,15-11,15-40Zm150-20c0-47-3-60-15-60s-15,13-15,60s3,60,15,60s15-13,15-60Zm70,15c0-43,1-45,30-45c20,0,30-5,30-15c0-11-12-15-45-15h-45v60c0,47,3,60,15,60c11,0,15-12,15-45Zm194,23c35-49,3-98-64-98h-40v60v60h44c35,0,48-5,60-22Z" fill="#580d83"/><path d="M411,1400c-142-148-160-170-137-170h26v-160-160h280h280v160v160h25c14,0,25,3,25,6c0,8-322,334-329,334-3-1-80-77-170-170Zm264-122c27-87,27-87,9-124-24-49-64-77-109-78-28-1-35-5-35-22c0-11,7-29,15-40c18-24,19-34,1-34-8,0-21,18-30,41-20,51-13,99,21,140c14,16,22,33,18,37-10,10-65-59-65-82c0-18-1-18-20-1-10,9-24,33-30,51-24,70,24,137,119,169c27,9,55,23,62,32c7,8,14,11,15,7c1-5,14-48,29-96Z" fill="#580d83"/><path d="M1240,1416c0-89,3-106,15-106c13,0,15,16,13,102-2,70-7,103-15,106-10,3-13-22-13-102Z" fill="#580d83"/><path d="M1577,1469c-8-68,2-171,17-166s15,209,0,214c-7,2-14-17-17-48Z" fill="#580d83"/><path d="M1710,1475c0-33,4-45,15-45s15,12,15,45-4,45-15,45-15-12-15-45Z" fill="#580d83"/><path d="M2056,1513c-3-3-6-35-6-70c0-49,3-63,15-63s15,14,15,64c0,60-8,84-24,69Z" fill="#580d83"/><path d="M1760,1030c0-5,7-10,15-10s15,5,15,10c0,6-7,10-15,10s-15-4-15-10Z" fill="#580d83"/><path d="M1760,990c0-5,7-10,15-10s15,5,15,10c0,6-7,10-15,10s-15-4-15-10Z" fill="#580d83"/><path d="M2250,1010c0-34,23-41,38-12c13,23,4,42-19,42-14,0-19-7-19-30Z" fill="#580d83"/></g></svg>