<svg version="1.2" xmlns="http://www.w3.org/2000/svg" viewBox="0 0 221 76" width="221" height="76">
	<title>logo_1_white-svg</title>
	<style>
		.s0 { fill: #000000 } 
		.s1 { fill: #580d83 } 
		.s2 { fill: #580d83;stroke: #3f5787;stroke-width: .4 } 
	</style>
	<g id="Layer">
		<path id="Layer" class="s0" d="m41.1 5.4l-12.4 12.4-7.9 8.2-6.7 7.1q-2.2 2.4-3.7 4.2-1.5 1.7-0.5 2.2h3.1v32.1h30.5 25.5v-7.1-21-4q2.5 0 3.3 0 0.9 0 1.7-0.6l-5.4-5.8-5.9-5.9-7.5-7.4-14.1-14.4 1.6-5.2 12.5 13.2q4.5 5 5.1 5 0.6 0 0.7-2.9v-6.1h10v20.7l6.4 6.4q5.6 5.4 5 6.1-0.6 0.7-3.7 0.9h-5.7v33.2l-63.5-0.5-0.5-32.7q-1.7 0-4.6 0-2.9 0-4.4-0.9l2.4-2.7 18.4-19.4 20.7-21.4 1.2 1.1"/>
		<path id="Layer" class="s0" d="m49 29.4c0.7 2.6 3.9 11.6 3.6 14.7q-0.2 3.1-3.9 7.2-2.9 2.8-5.6 3.4c-2.7 0.5-3-0.1-4.7 0.5-1.8 0.7-1.3 2.1-1.3 2.8 0 0.7 1.6 3.6 2.4 4.7 0.7 1 0.2 1.7 0.2 1.8-0.1 0.1-1 0.2-1.5 0.1q-0.4-0.2-1.6-1.9-1.9-3.7-2.1-6.7c-0.2-3 0.8-5.4 0.9-5.9q0.1-0.4 1.8-3.1l0.9-0.9q1.1-1.7 1.3-2.3c0.2-0.6 0.2-1.2-0.8-0.9q-1 0.4-3.2 3.3-2.5 3.2-2.4 4.9 0.1 1.7-0.6 1.1l-0.9-0.6-1-1-0.7-1q-1.2-1.8-2-3.9c-0.7-2.2-0.3-4.6-0.3-5q0-0.3 0.7-2.5 0.4-1.1 1.3-2.4c1-1.3 3.6-3.2 3.8-3.4 0.2-0.2 1.4-1 4-2.4 0.4-0.2 1.6-0.6 3.3-1.3 1.8-0.6 2.2-0.9 3.5-1.6 1.4-0.7 1.6-1.2 2.3-1.7q0.8-0.5 1.1-0.5 0.8 1.9 1.5 4.5z"/>
		<path id="Layer" class="s0" d="m106.8 7.5c2 0 3.6 0.8 4.5 1.4q0.9 0.6 1.5 3.3l0.3 4.3q0 15.6-1 17-1 1.3-2.6 1.9l-6.4 0.2-0.1-28.2q1.8 0.1 3.8 0.1z"/>
		<path id="Layer" class="s0" d="m121.7 7.4q2.7 0.3 2.4 1.5c-0.3 1.3-1.5 1.4-1.9 1.5-0.4 0.2-2-0.8-2.2 2.4-0.2 3.2 0.5 6.4 0.9 6.5 0.3 0 1.2 0.1 1.9 0.7 0.4 0.6 0.3 1.7-0.2 2.1-0.6 0.4-1.6 0-2 0.7q-0.4 0.8-0.5 2.3-0.5 6.5 1.1 6.3c1.7-0.2 2.4 0.6 2.6 1 0.3 0.4 0.3 1.5-0.1 2.3q-0.3 0.8-2.4 0.8h-5.3l0.1-28z"/>
		<path id="Layer" class="s0" d="m131.3 7.4q2.8 0.4 3.4 2.6c0.5 2.3 0.1 4.3-0.2 4.8-0.3 0.6-0.9 0.8-1.5 0.4q-0.7-0.4-0.9-1.2-0.1-0.3-0.5-1.5-0.4-1.2-1-1.4-0.7 0.2-1 3.7c-0.3 3.5 0.1 11 0 11.6q-0.1 0.5 0.1 2.8l0.4 1.6q0.8 2.6 1.5-0.9 0.6-3.5 1.5-3.5 0.9-0.4 1.5 0.8 0.6 1.2 0.3 4.1-0.4 3.9-3.3 4.1c-2.9 0.2-3.1 0-4.2-1q-1-1-1.4-6.7l0.1-13.5q0.4-5.4 1.4-6.1 1.1-0.7 3-0.7z"/>
		<path id="Layer" class="s0" d="m143.4 7.5c0.9 0.1 1.9 0.7 2.4 1.2 0.5 0.5 1.1 1.6 1.2 1.8 0.1 0.3 0.2 1.7 0.5 4.7v3l0.1 4.8q0 4.9-0.7 8.2c-0.6 3.3-1.8 3.7-2.3 4-0.5 0.2-2.6 0.7-3.9 0.3-1.3-0.4-2-1-2.6-1.8-0.5-0.8-1-5.4-1-5.9q0-0.4-0.2-7.4 0.3-5.9 0.4-7.2c0.1-1.3 0.6-3.7 2.1-4.7q1.5-1 2.6-1.1 0.5-0.1 1.4 0.1z"/>
		<path id="Layer" class="s0" d="m158.9 8.8c1.7 1.6 1.9 3.8 1.9 4.3 0 0.4-0.3 4-0.4 4.4q0 0.4-0.2 3.8l0.1 3.3q0.7 9.1 0.5 10c-0.2 1-0.7 1.2-1.6 0.7-0.7-0.3-1.1-1.4-1.4-3.5l-0.8-4.9-0.5-2.8q-0.4-1.5-0.6-1.6c-0.1-0.1-0.7-0.3-1 0.1q-0.4 0.3-0.6 1.6l-0.2 2.2-0.1 5.1q-0.2 2.7-0.4 3.2c-0.1 0.5-0.6 0.7-1.8 0.8-1.3 0-1.2-1-1.4-1.4q-0.2-0.4-0.3-3.3l-0.1-3.8v-3.5-2.8-3.1q0-1.1 0.1-3.1c0.1-2 0.2-4.3 0.4-5.4 0.1-1.1 0.1-0.8 0.4-1.2 0.4-0.3 1.7-0.3 1.9-0.4q0.2-0.1 2-0.2 2.4-0.2 4.1 1.5z"/>
		<path id="Layer" class="s0" d="m174.4 9.4c0.1 0.4 0.5 6 0.6 7.3 0.2 1.3 0.8 3 1.7 2.7 0.9-0.3 1-1.2 1-1.5 0.1-0.2 0.3-5.2 0.3-5.5 0-0.3 0.1-3.9 0.4-4.4 0.3-0.5 0.9-0.7 1.5-0.6q0.6 0.2 0.8 1.8l0.2 4.4 0.1 12.1q0 3.5 0 3.6 0 0.3-0.3 4.7c-0.2 1.4-1.1 2.2-1.9 1.3-0.7-0.8-0.7-4.7-0.7-5.1-0.1-0.3-0.3-5.2-0.5-6.4-0.3-1.2-0.9-1.5-1.5-1.2q-0.7 0.4-1 1.9 0 9.7-0.5 10.4-0.5 0.6-1.7 0.6-1.7-0.3-1.7-1.5c0-1.2-0.5-20-0.2-22.9 0.3-2.8 0.5-3.3 1.5-3.5 1.6-0.1 1.8 1.5 1.9 1.8z"/>
		<path id="Layer" class="s0" d="m192.1 8.3c0.8 0.6 1.7 1.8 2.2 3.8q0.6 2 0.7 12.6 0 9.1-0.5 10.1c-0.5 1-2 0.8-2.7 0.4-0.7-0.3-0.7-1.2-0.7-1.7-0.1-0.4 0-1.7-0.5-4.3-0.4-2.6-2-1.2-2-1.2q-0.3 0.5-0.6 4.2c-0.1 1.5 0 2.4-0.4 2.8-1.1 1.2-2.7 0.5-3.3-0.1q-0.6-0.8-0.1-14.2 0.5-10.5 1.5-11.7 1-1.2 3.3-1.5c1.6 0.1 2.2 0.2 3.1 0.8z"/>
		<path id="Layer" class="s0" d="m201 11.8l0.1 6.6c0.3 3.8 0.2 5.7 0.5 8 0.5 3.3 0.7 5.9 1.4 5.7 0.6-0.2 0.8-2.4 0.8-3.2 0.1-0.8 0.7-11.9 0.7-16.5 0-4.5 1.2-4.9 2.2-4.9q1.1 0 1.3 4-0.1 7.5-0.1 11.4c0 3.8 0.5 11.6-3.6 12.4q-4.2 0.8-5.6-2c-0.4-0.6-1.4-7.5-1.7-13.1-0.4-5.6-0.4-10 1.2-12.2 1.4-1.4 2.5 0.2 2.8 3.8z"/>
		<path id="Layer" class="s0" d="m218.6 8.2c0.5 0.4 1.4 3.3 1.5 4.6 0.1 1.3-0.3 2.5-1.2 2.5q-1.8 0.1-2-1.7-0.1-1.8-1-2.9-1-0.7-1.5 0.9-0.5 1.6-0.6 2.9-0.1 3.5 2.3 5.2c2.5 1.8 2.7 3 3.5 4.3 0.7 1.2 1.2 4.4 0.7 6.5-0.5 2.1-0.7 3.6-3.2 4.6-2.4 1-4.3 0.2-5.6-0.9q-1.3-1.1-1.6-4.4-0.1-3 1.4-3.2c1.5-0.3 2.4 1.8 2.5 2.2 0.2 0.4 1.2 3.1 1.7 2.6 0.5-0.4 0.5 0 1.2-1.8 0.6-1.7-0.3-3.4-0.3-3.7q-0.1-0.3-1.8-2.6-2.9-2.3-4.1-5.8c-1.3-3.5-0.5-5.9 0.4-8.1q1-2.1 4.2-2c2.4 0 3.1 0.5 3.5 0.8z"/>
		<path id="Layer" class="s0" d="m117.3 58.8q0.5 0.8 1.4 3.1 1-4.1 1.1-4.3c0.1-0.1 0-1.4 1.2-1.8 1.1-0.4 1.5 0.2 1.6 0.3 0.2 0.2 1.1 1.9 2.8 6l0.2-0.9q0.8-3.9 1.7-4.9c1-1 1.6-0.9 2.1-0.6 0.5 0.3 0.6 1.2 0.6 1.6-0.1 0.4-0.3 1.5-1 3.9q-0.7 2.8-1.3 4.2-0.7 1.5-2.1 1.8-2.2 0-2.5-2.2-0.3-2.1-1.2-2.6-0.8-0.4-1.1 1.4-0.4 1.8-1.2 3.1-0.5 0.9-1.6 0.7-1.2-0.1-2.2-2.3-2.1-6.3-2.4-7.9-0.4-1.7 0.1-1.8c2.2-0.2 3.4 2.5 3.8 3.2z"/>
		<path id="Layer" class="s0" d="m142.4 55.8c1.8 0.3 1.7 1.7 1.5 2.1-0.3 0.5-1.9 0.6-3.7 0.7-1.9 0-3.3 1.8-1.2 1.9 2.1 0 2.4 0.3 2.7 0.7 0.3 0.3 0.7 2-0.8 2.2-1.4 0.2-2.3 0.8-2.1 0.9q0.1 0.1 2.1 0.3c0.4 0.1 1 0 2.2 0.3 1.1 0.3 0.9 2.2 0 2.4q-0.9 0.3-3.1 0.3h-6v-12q6.6-0.1 8.4 0.2z"/>
		<path id="Layer" class="s0" d="m158.8 55.6c1.2 0 1.8-0.1 3.5 0.3 1.8 0.4 2.3 0.9 2.8 1.6 0.5 0.8 0.6 2.9 0.6 3.6 0.1 0.7 0 4.3-1.1 5.3q-1.2 1-3.4 1.2h-5.2v-12z"/>
		<path id="Layer" class="s0" d="m172.4 56q0.3 0.4 0.5 2 0 2.6 0.4 4.7c0.5 2 2 1.7 2.6 1.7 0.7 0.1 1.4-1.2 1.6-1.6 0.1-0.5 0.5-2.4 0.5-3.2 0.1-0.9 0.3-3.5 1-3.8 0.7-0.3 1.1-0.1 1.5 0.2 0.4 0.3 0.6 2.6 0.6 3.3 0 0.7-0.5 3.7-0.6 4.2-0.2 0.6-1.4 2.4-1.6 2.7-0.3 0.2-2 1.5-3.5 1.4-1.5 0-3.6-0.8-4.1-1.4-0.5-0.6-0.7-1.2-1.1-2.7q-0.8-4-0.2-6 0.6-2 1.5-1.9 0.5 0 0.9 0.4z"/>
		<path id="Layer" class="s0" d="m187.6 56.5c0.2 0.5 0.4 1.1 0.4 3.2q0 5.8-0.2 6.6-0.2 0.8-0.9 1.3-1.2 0.3-1.5-0.6c-0.3-0.9-0.4-4.5-0.4-4.6 0 0-0.1-4 0.2-5.4q0.4-1.5 1.4-1.4c0.3 0 0.8 0.3 1 0.9z"/>
		<path id="Layer" class="s0" d="m194.2 55.8q0.5 0.3 0.8 2.3v3.7c0 1.5 0.2 1.5 0.5 2.1 0.3 0.6 2.8 0.8 4.1 0.9 1.3 0 1.9 1.3 1.1 2.1q-0.9 0.8-4 0.7h-4.7v-2.5q0-6 0.2-7.8 0.2-1.8 1.2-1.7c0.2 0 0.3 0 0.8 0.2z"/>
		<path id="Layer" class="s0" d="m208.1 55.5c1.1-0.1 3.7 0.1 4.8 0.8 1.4 0.8 2.4 2.4 2.7 4.1 0.5 2.4-0.1 3.3-0.3 3.8-0.2 0.5-1.7 2.2-3.9 3q-2.3 0.7-7.4 0.4v-12q2.4-0.1 4.1-0.1z"/>
		<path id="Layer" class="s1" d="m142.8 12.6c1.9 2.1 2.1 18.2-0.3 17.1-2.2-0.9-2.3-15.7-0.3-17.1 0.1 0 0.4-0.1 0.6 0z"/>
		<path id="Layer" class="s2" d="m109.2 13.2c1.9 2.2 1.9 18.7-0.4 17.6-2.2-1-2.2-16.3-0.1-17.6 0.1-0.1 0.3-0.1 0.5 0z"/>
		<path id="Layer" class="s1" d="m155.6 10.9c1.4 1 1.5 8.2-0.3 7.7-1.6-0.4-1.6-7.1-0.1-7.7 0.1 0 0.3 0 0.4 0z"/>
		<path id="Layer" class="s1" d="m189.8 12.2c1.3 1.5 1.4 12.2-0.3 11.4-1.6-0.6-1.7-10.5-0.1-11.4 0 0 0.2 0 0.4 0z"/>
		<path id="Layer" class="s1" d="m210 59.7c1.4 0.4 1.5 3.6-0.2 3.4-1.6-0.2-1.7-3.2-0.2-3.4 0.1-0.1 0.2-0.1 0.4 0z"/>
		<path id="Layer" class="s1" d="m162.5 60c-0.5 0.8-4.1 0.8-3.9-0.2 0.3-0.9 3.6-1 3.9-0.1 0 0.1 0 0.2 0 0.3z"/>
		<path id="Layer" class="s1" d="m162.7 63.4c-0.5 0.8-4.1 0.8-3.9-0.2 0.2-1 3.6-1 3.9-0.1 0 0.1 0 0.2 0 0.3z"/>
	</g>
</svg>