<svg version="1.2" xmlns="http://www.w3.org/2000/svg" viewBox="0 0 221 76" width="221" height="76">
	<title>DecorHaus-svg</title>
	<style>
		.s0 { fill: #580d83 } 
	</style>
	<g id="Layer">
		<path id="Layer" fill-rule="evenodd" class="s0" d="m-16-89h253v253h-253zm67.6 98.8l-9.1-9.7-20.8 21.3c-11.4 11.8-20.7 21.8-20.7 22.2 0 0.5 2 0.9 4.5 0.9h4.5l0.2 16.3 0.3 16.4 31.8 0.3 31.7 0.2v-33.2h4.4c2.5 0 4.7-0.4 5-0.8 0.3-0.5-2.2-3.5-5.4-6.7l-6-5.9v-20.7h-10v4.5c0 2.5-0.3 4.5-0.7 4.5-0.3 0-4.7-4.3-9.7-9.6zm55.8-1.4h-3.4v28.1h4c5.3 0 6-1.6 6-14.5 0-8.2-0.3-10.8-1.6-12-0.8-0.9-3.1-1.6-5-1.6zm13.6 0h-4v28.1h4c3.3 0 4-0.3 4-2 0-1.3-0.7-2-2-2-1.7 0-2-0.7-2-4.5 0-3.4 0.4-4.6 1.5-4.6 0.8 0 1.5-0.7 1.5-1.5 0-0.8-0.7-1.5-1.5-1.5-1.1 0-1.5-1.2-1.5-4.5 0-3.8 0.3-4.5 2-4.5 1.1 0 2-0.7 2-1.5 0-1.1-1.1-1.5-4-1.5zm10.5 0c-3.9 0-4.5 1.8-4.5 14 0 12.3 0.6 14.1 4.5 14.1q4.5 0 4.5-5.7c0-4.1-2.7-4.6-3.2-0.6-0.2 1.6-0.7 2.7-1.3 2.5-0.6-0.1-1-4.4-1-10.3 0-5.8 0.4-10.1 1-10.3 0.6-0.1 1.1 0.8 1.3 2 0.2 1.3 1 2.3 1.8 2.3 1.7 0 1.9-5.1 0.2-6.8-0.7-0.7-2.1-1.2-3.3-1.2zm8.2 1.8c-1.4 1.5-1.7 4-1.7 12.1 0 11.8 0.8 14.2 4.9 14.2 4.8 0 5.6-2.1 5.6-14.1 0-7.6-0.4-11.2-1.4-12.3-1.8-2.2-5.4-2.1-7.4 0.1zm15.9-1.8c-1.8 0-3.6 0.3-3.9 0.7-0.4 0.3-0.7 6.6-0.7 14 0 12.7 0.1 13.4 2 13.4 1.8 0 2-0.7 2-6.5 0-5 0.3-6.6 1.4-6.6 0.9 0 1.6 2.1 2.1 6.6 0.5 4.9 1 6.5 2.2 6.5 1.3 0 1.4-1.1 0.9-6.8-0.7-8.4-0.7-8 0-12.6 0.4-2.6 0.1-4.5-1-6.2-1.2-1.8-2.5-2.5-5-2.5zm18.2 0.2c-1.6-0.3-1.8 0.9-1.8 13.7 0 13.5 0.1 14.2 2 14.2 1.8 0 2-0.7 2-6.5 0-5.2 0.3-6.6 1.5-6.6 1.2 0 1.5 1.4 1.5 6.6 0 5.1 0.3 6.5 1.5 6.5 1.3 0 1.5-2.2 1.5-14.1 0-11.8-0.2-14-1.5-14-1.2 0-1.5 1.3-1.5 6 0 4.6-0.3 6-1.5 6-1 0-1.5-1.5-1.7-5.7-0.2-4.6-0.7-5.9-2-6.1zm13.1 1.4c-1 1.2-1.5 5.3-1.7 14.1-0.4 12-0.3 12.4 1.7 12.4 1.8 0 2.1-0.6 2.1-4 0-2.9 0.4-4 1.5-4 1.1 0 1.5 1.1 1.5 4 0 3.3 0.3 4 2 4 1.9 0 2-0.7 2-11.3 0-7.1-0.5-12.2-1.3-13.8-1.5-3.1-5.8-3.8-7.8-1.4zm13.5-1.6c-2.3 0-2.7 2.4-2.2 14.1 0.6 12 1.4 14 5.9 14 4.1 0 4.9-2.8 4.9-16.7 0-10.5-0.2-11.5-1.7-11.2-1.6 0.3-1.8 1.8-2.1 12.6-0.2 9.3-0.6 12.3-1.5 12-0.8-0.2-1.3-4.1-1.5-12.6-0.2-10.1-0.5-12.2-1.8-12.2zm11.6 1.9c-2.2 4.1-1.2 9 2.5 12.9 2.8 2.9 3.5 4.4 3.3 6.8-0.3 3.5-2 3.7-2.8 0.3-0.8-3.4-4-3.7-4-0.3 0 4.2 1.7 6.5 4.9 6.5 1.6 0 3.3-0.6 3.8-1.3 3.2-3.9 1.9-11.5-2.3-14.3-1.9-1.2-2.4-2.4-2.4-5.6 0-4.3 2.2-5.2 2.8-1.1 0.2 1.2 1 2.2 1.8 2.2 1.7 0 1.9-5.1 0.2-6.8-1.9-1.9-6.6-1.5-7.8 0.7zm-97.6 48c0.2 1 1 3.7 1.7 6 1.5 5.3 4.4 5.9 5.4 1.2 0.7-3.2 2-2.9 2.7 0.6 0.2 1.2 1.1 2 2.2 2 1.4 0 2.3-1.2 3.2-4.5 1.8-5.8 1.7-7-0.1-7-0.8 0-1.8 1.4-2.3 3.2l-0.8 3.3-1.2-3.3c-0.6-1.7-1.8-3.2-2.6-3.2-0.8 0-1.8 1.4-2.2 3.2l-0.7 3.3-1.4-3.3c-1.4-3.3-4.9-4.7-3.9-1.5zm25.6-1.7h-5v12h5c3.8 0 5-0.4 5-1.5 0-1-1.1-1.5-3.2-1.6-2.4-0.1-2.7-0.3-1-0.6 2.7-0.5 2.9-3.3 0.2-3.3-1.1 0-2-0.5-2-1 0-0.6 1.4-1 3-1q3 0 3-1.5c0-1.1-1.2-1.5-5-1.5zm20.9 0h-3.9v12h3.9c4.6 0 5.8-1.3 5.8-6 0-1.9-0.4-4.1-1-4.8-0.5-0.6-2.7-1.2-4.8-1.2zm11.6 0c-2.5 0-2.1 9.6 0.4 11 5.1 2.7 9.1-0.5 9.1-7.2 0-2.7-0.4-3.8-1.5-3.8-1 0-1.5 1-1.5 3.2 0 4.2-1.3 6.3-3.4 5.5-1.1-0.4-1.6-1.9-1.6-4.7 0-2.9-0.4-4-1.5-4zm15 0c-1.2 0-1.5 1.3-1.5 6 0 4.7 0.3 6 1.5 6 1.2 0 1.5-1.3 1.5-6 0-4.7-0.3-6-1.5-6zm7 0c-1.2 0-1.5 1.3-1.5 6v6h4.5c3.3 0 4.5-0.4 4.5-1.5q0-1.5-3-1.5c-2.9 0-3-0.2-3-4.5 0-3.3-0.4-4.5-1.5-4.5zm14.9 0h-4.4v12h4c6.7 0 9.9-4.9 6.4-9.8-1.2-1.7-2.5-2.2-6-2.2z"/>
		<path id="Layer" fill-rule="evenodd" class="s0" d="m42.1 6.4c0.7 0 32.9 32.7 32.9 33.5 0 0.3-1.1 0.6-2.5 0.6h-2.5v32.1h-56v-32.1h-2.6c-2.3 0-0.5-2.2 13.7-17.1 9-9.3 16.7-16.9 17-17zm6.5 19.7c-0.1-0.4-0.8-0.1-1.5 0.7-0.7 0.9-3.5 2.3-6.2 3.2-9.5 3.2-14.3 9.9-11.9 16.9 0.6 1.8 2 4.3 3 5.2 1.9 1.7 2 1.7 2-0.1 0-2.4 5.5-9.3 6.5-8.3 0.4 0.4-0.4 2.1-1.8 3.7-3.4 4.2-4.1 9-2.1 14.1 0.9 2.3 2.2 4.1 3 4.1 1.8 0 1.7-1-0.1-3.4-0.8-1.1-1.5-2.9-1.5-4 0-1.7 0.7-2.1 3.5-2.2 4.5-0.1 8.5-2.9 10.9-7.9 1.8-3.7 1.8-3.7-0.9-12.4-1.5-4.8-2.8-9.1-2.9-9.6z"/>
		<path id="Layer" class="s0" d="m109.3 11.6c0.8 0.3 1.3 3.6 1.5 10.6 0.2 8.7 0 10.3-1.3 10.3-1.2 0-1.5-1.7-1.5-10.7 0-8 0.3-10.5 1.3-10.2z"/>
		<path id="Layer" class="s0" d="m143.4 11.7c1.5 0.5 1.5 21 0 21.5-1.5 0.5-2.5-9.9-1.7-16.7 0.3-3.1 1-5 1.7-4.8z"/>
		<path id="Layer" class="s0" d="m156.5 11.4c1.1 0 1.5 1.2 1.5 4.5 0 3.3-0.4 4.5-1.5 4.5-1.1 0-1.5-1.2-1.5-4.5 0-3.3 0.4-4.5 1.5-4.5z"/>
		<path id="Layer" class="s0" d="m192 19c0 5-0.3 6.5-1.5 6.5-1.2 0-1.5-1.5-1.5-6.4 0-3.5 0.3-6.7 0.6-7 1.6-1.5 2.4 0.9 2.4 6.9z"/>
		<path id="Layer" class="s0" d="m161.5 59.6c0.8 0 1.5 0.4 1.5 1 0 0.5-0.7 1-1.5 1-0.8 0-1.5-0.5-1.5-1 0-0.6 0.7-1 1.5-1z"/>
		<path id="Layer" class="s0" d="m161.5 63.6c0.8 0 1.5 0.4 1.5 1 0 0.5-0.7 1-1.5 1-0.8 0-1.5-0.5-1.5-1 0-0.6 0.7-1 1.5-1z"/>
		<path id="Layer" class="s0" d="m210.9 59.6c2.3 0 3.2 1.9 1.9 4.2-1.5 2.9-3.8 2.2-3.8-1.2 0-2.3 0.5-3 1.9-3z"/>
	</g>
</svg>