<?xml version="1.0" standalone="no"?>
<!DOCTYPE svg PUBLIC "-//W3C//DTD SVG 20010904//EN"
 "http://www.w3.org/TR/2001/REC-SVG-20010904/DTD/svg10.dtd">
<svg version="1.0" xmlns="http://www.w3.org/2000/svg"
 width="700.000000pt" height="700.000000pt" viewBox="0 0 700.000000 700.000000"
 preserveAspectRatio="xMidYMid meet">
<metadata>
Created by potrace 1.14, written by Peter Selinger 2001-2017
</metadata>
<g transform="translate(0.000000,700.000000) scale(0.100000,-0.100000)"
fill="#000000" stroke="none">
<path d="M3377 6964 c-1 -1 -60 -5 -132 -9 -71 -3 -132 -8 -135 -10 -3 -1 -38
-6 -78 -9 -40 -4 -78 -9 -85 -11 -6 -2 -29 -7 -50 -10 -59 -8 -184 -34 -272
-57 -44 -11 -87 -21 -95 -23 -46 -10 -203 -64 -325 -112 -219 -86 -447 -204
-630 -326 -79 -53 -271 -192 -285 -207 -3 -3 -36 -32 -75 -65 -160 -136 -373
-364 -506 -540 -352 -467 -596 -1064 -664 -1628 -3 -23 -7 -58 -10 -77 -22
-168 -22 -653 0 -740 2 -8 7 -40 10 -70 5 -48 23 -162 41 -255 3 -16 16 -75
30 -130 94 -374 224 -678 447 -1040 19 -32 129 -187 151 -216 12 -14 32 -41
46 -59 58 -78 235 -272 336 -367 371 -349 803 -608 1282 -769 130 -43 372
-107 457 -119 22 -4 51 -8 65 -11 50 -9 156 -23 215 -28 33 -3 89 -8 125 -12
77 -7 420 -7 470 0 19 3 64 8 100 11 36 3 76 7 90 9 14 2 50 7 80 11 83 10
283 52 390 81 228 61 433 140 655 253 209 107 337 186 510 316 367 275 669
609 898 994 176 296 297 587 382 919 47 182 57 241 90 502 22 177 22 516 0
700 -11 93 -18 147 -21 165 -2 11 -6 38 -9 60 -9 66 -34 183 -66 303 -209 793
-690 1481 -1369 1958 -503 354 -1124 571 -1749 610 -88 5 -310 11 -314 8z"/>
</g>
</svg>
